<mxfile host="app.diagrams.net" agent="Mozilla/5.0 (Windows NT 10.0; Win64; x64) AppleWebKit/537.36 (KHTML, like Gecko) Chrome/129.0.0.0 Safari/537.36" version="24.7.16">
  <diagram name="Page-1" id="zUtxqj9uM4W22OJXoysG">
    <mxGraphModel dx="1034" dy="412" grid="1" gridSize="10" guides="1" tooltips="1" connect="1" arrows="1" fold="1" page="1" pageScale="1" pageWidth="827" pageHeight="1169" math="0" shadow="0">
      <root>
        <mxCell id="0" />
        <mxCell id="1" parent="0" />
        <mxCell id="D5fFlwtKq16TZ2LnLt4--1" value="Determinar si un numero es negativo&lt;div&gt;leer numero&amp;nbsp;&lt;/div&gt;&lt;div&gt;verificar si numero es menor que cero&lt;/div&gt;&lt;div&gt;Si numero es menor que cero mostrar &quot;Numero es negativo&quot;&lt;/div&gt;&lt;div&gt;Si numero no es menor que cero mostrar &quot;numero no es negativo&quot;&lt;/div&gt;" style="text;html=1;align=center;verticalAlign=middle;whiteSpace=wrap;rounded=0;" vertex="1" parent="1">
          <mxGeometry x="40" y="30" width="400" height="100" as="geometry" />
        </mxCell>
        <mxCell id="D5fFlwtKq16TZ2LnLt4--4" value="" style="edgeStyle=orthogonalEdgeStyle;rounded=0;orthogonalLoop=1;jettySize=auto;html=1;" edge="1" parent="1" source="D5fFlwtKq16TZ2LnLt4--2" target="D5fFlwtKq16TZ2LnLt4--3">
          <mxGeometry relative="1" as="geometry" />
        </mxCell>
        <mxCell id="D5fFlwtKq16TZ2LnLt4--2" value="inicio" style="ellipse;whiteSpace=wrap;html=1;aspect=fixed;" vertex="1" parent="1">
          <mxGeometry x="374" y="170" width="80" height="80" as="geometry" />
        </mxCell>
        <mxCell id="D5fFlwtKq16TZ2LnLt4--6" value="" style="edgeStyle=orthogonalEdgeStyle;rounded=0;orthogonalLoop=1;jettySize=auto;html=1;" edge="1" parent="1" source="D5fFlwtKq16TZ2LnLt4--3" target="D5fFlwtKq16TZ2LnLt4--5">
          <mxGeometry relative="1" as="geometry" />
        </mxCell>
        <mxCell id="D5fFlwtKq16TZ2LnLt4--3" value="Leer numero" style="shape=parallelogram;perimeter=parallelogramPerimeter;whiteSpace=wrap;html=1;fixedSize=1;" vertex="1" parent="1">
          <mxGeometry x="354" y="340" width="120" height="60" as="geometry" />
        </mxCell>
        <mxCell id="D5fFlwtKq16TZ2LnLt4--8" value="" style="edgeStyle=orthogonalEdgeStyle;rounded=0;orthogonalLoop=1;jettySize=auto;html=1;" edge="1" parent="1" source="D5fFlwtKq16TZ2LnLt4--5" target="D5fFlwtKq16TZ2LnLt4--7">
          <mxGeometry relative="1" as="geometry" />
        </mxCell>
        <mxCell id="D5fFlwtKq16TZ2LnLt4--5" value="numero &amp;lt; 0&amp;nbsp;" style="rhombus;whiteSpace=wrap;html=1;" vertex="1" parent="1">
          <mxGeometry x="374" y="470" width="80" height="80" as="geometry" />
        </mxCell>
        <mxCell id="D5fFlwtKq16TZ2LnLt4--7" value="mostrar &quot;numero es menor que cero&quot;" style="shape=parallelogram;perimeter=parallelogramPerimeter;whiteSpace=wrap;html=1;fixedSize=1;" vertex="1" parent="1">
          <mxGeometry x="530" y="570" width="120" height="60" as="geometry" />
        </mxCell>
        <mxCell id="D5fFlwtKq16TZ2LnLt4--9" value="Si" style="text;html=1;align=center;verticalAlign=middle;whiteSpace=wrap;rounded=0;" vertex="1" parent="1">
          <mxGeometry x="490" y="480" width="60" height="30" as="geometry" />
        </mxCell>
      </root>
    </mxGraphModel>
  </diagram>
</mxfile>
